<svg id="svg" version="1.1" xmlns="http://www.w3.org/2000/svg" xmlns:xlink="http://www.w3.org/1999/xlink" width="400" height="400" viewBox="0, 0, 400,400"><g id="svgg"><path id="path0" d="M194.907 47.689 C 173.964 48.635,154.065 55.029,136.863 66.340 C 132.989 68.888,133.210 68.481,135.103 69.588 C 141.290 73.202,144.792 79.613,144.792 87.326 L 144.792 91.204 145.602 91.207 C 155.511 91.248,178.975 94.870,180.736 96.632 C 181.472 97.367,173.719 109.825,168.620 116.100 L 166.090 119.214 154.582 107.707 C 148.253 101.379,143.025 96.249,142.966 96.309 C 142.906 96.369,142.346 97.197,141.720 98.151 C 139.709 101.217,137.390 103.404,134.295 105.156 L 133.057 105.856 144.596 117.409 L 156.134 128.962 154.977 129.994 C 150.101 134.340,142.674 139.299,136.105 142.596 L 133.853 143.726 132.871 139.976 C 130.389 130.501,129.149 121.965,128.574 110.387 L 128.429 107.463 125.472 107.583 C 117.106 107.922,110.621 104.253,106.122 96.634 C 105.538 95.645,98.362 107.781,94.893 115.625 C 70.772 170.165,91.394 233.649,142.788 263.065 C 180.111 284.428,227.301 283.097,263.137 259.671 C 266.476 257.489,266.318 257.894,264.481 256.211 C 258.723 250.935,256.122 241.368,258.685 234.896 C 258.834 234.520,258.569 234.491,254.987 234.491 C 243.792 234.491,219.676 230.741,219.676 229.000 C 219.676 227.003,227.220 215.114,232.475 208.829 L 234.093 206.895 246.735 219.535 C 253.688 226.488,259.444 232.176,259.525 232.176 C 259.607 232.176,260.175 231.373,260.786 230.391 C 262.288 227.983,264.720 225.478,267.087 223.903 L 269.043 222.602 256.956 210.548 C 244.060 197.688,244.453 198.108,244.448 197.198 C 244.443 196.301,245.068 195.759,249.884 192.485 C 252.303 190.841,256.926 187.685,260.157 185.472 C 263.389 183.260,266.114 181.534,266.213 181.639 C 266.312 181.743,266.764 183.183,267.217 184.838 C 270.086 195.326,271.756 207.390,271.758 217.650 C 271.759 219.783,271.785 221.527,271.817 221.525 C 271.849 221.524,272.386 221.368,273.010 221.178 C 279.861 219.100,288.202 221.517,293.345 227.072 C 295.183 229.058,294.801 229.132,296.578 226.447 C 319.059 192.467,321.702 147.741,303.390 111.178 C 282.975 70.417,240.613 45.624,194.907 47.689 M211.806 61.476 C 231.210 63.751,248.809 71.066,264.035 83.184 C 265.707 84.514,267.133 85.697,267.204 85.813 C 267.276 85.929,260.995 92.362,253.247 100.110 L 239.159 114.196 237.461 112.695 C 227.652 104.021,214.525 95.676,201.968 90.131 C 199.485 89.035,199.198 88.848,199.267 88.376 C 199.393 87.519,204.643 61.488,204.760 61.142 C 204.881 60.786,206.629 60.869,211.806 61.476 M188.995 72.366 C 187.770 78.334,186.745 83.239,186.718 83.266 C 186.664 83.321,145.448 77.148,145.106 77.034 C 144.775 76.923,150.455 73.578,154.192 71.683 C 162.861 67.286,172.025 64.268,182.407 62.393 C 185.464 61.840,191.080 61.173,191.155 61.353 C 191.192 61.442,190.220 66.398,188.995 72.366 M278.839 97.743 C 292.399 114.020,300.221 133.495,302.060 155.553 C 302.182 157.016,302.263 158.231,302.240 158.253 C 302.072 158.419,275.381 163.675,275.153 163.588 C 274.992 163.526,273.205 160.626,271.183 157.143 C 265.954 148.140,260.132 138.431,258.500 135.995 C 257.230 134.099,256.097 132.646,250.984 126.352 C 250.061 125.216,249.301 124.056,249.295 123.775 C 249.282 123.186,276.481 96.070,277.088 96.067 C 277.282 96.066,278.070 96.820,278.839 97.743 M196.925 102.445 C 205.082 105.993,214.112 111.303,221.599 116.953 C 224.523 119.160,229.630 123.359,229.630 123.556 C 229.630 124.365,201.700 152.414,200.637 152.673 C 200.286 152.758,199.754 152.766,199.453 152.691 C 198.868 152.544,176.656 130.443,176.307 129.660 C 175.901 128.751,176.401 127.614,178.519 124.633 C 181.815 119.991,191.786 104.873,192.843 102.914 C 193.364 101.948,193.830 101.157,193.878 101.157 C 193.927 101.157,195.298 101.737,196.925 102.445 M117.471 128.590 C 119.189 140.030,120.570 149.405,120.540 149.423 C 120.440 149.483,98.960 153.942,98.785 153.938 C 97.846 153.921,100.450 139.800,102.819 132.063 C 105.059 124.744,113.455 106.897,114.273 107.714 C 114.315 107.756,115.754 117.150,117.471 128.590 M241.038 135.243 C 248.820 143.974,255.739 154.952,260.903 166.764 C 261.399 167.900,261.803 168.942,261.801 169.079 C 261.798 169.216,259.802 170.422,257.366 171.759 C 252.145 174.624,249.170 176.574,242.130 181.746 C 235.114 186.899,234.547 187.207,233.266 186.549 C 232.539 186.176,210.955 164.628,210.371 163.692 L 209.887 162.916 224.561 148.240 C 232.631 140.169,239.304 133.565,239.388 133.565 C 239.473 133.565,240.215 134.320,241.038 135.243 M170.572 143.040 C 172.689 145.069,178.041 150.356,182.465 154.789 L 190.509 162.849 175.724 177.632 L 160.940 192.415 159.043 190.247 C 153.062 183.411,147.460 175.152,143.160 166.832 C 140.991 162.634,138.847 157.893,138.937 157.497 C 139.004 157.204,141.907 155.138,156.250 145.169 C 166.919 137.755,165.307 137.994,170.572 143.040 M127.423 164.699 C 132.543 176.424,139.983 188.275,148.841 198.815 L 151.444 201.912 137.327 216.029 L 123.210 230.146 120.736 227.049 C 107.468 210.440,100.273 192.292,98.371 170.635 C 98.233 169.062,98.184 167.708,98.263 167.626 C 98.489 167.391,126.026 161.852,126.176 162.011 C 126.250 162.089,126.811 163.299,127.423 164.699 M301.753 173.090 C 300.214 186.593,296.954 197.855,291.420 208.796 C 289.073 213.435,286.319 218.133,286.094 217.880 C 285.875 217.633,279.787 176.618,279.946 176.458 C 280.051 176.353,300.949 171.860,301.705 171.780 C 301.815 171.769,301.837 172.358,301.753 173.090 M200.837 173.414 C 202.241 174.461,223.671 195.983,223.957 196.634 C 224.379 197.594,224.493 197.392,218.459 206.383 C 215.474 210.829,211.807 216.395,210.310 218.750 C 206.213 225.196,206.780 224.948,201.599 222.568 C 191.332 217.852,175.703 207.614,171.548 202.881 L 170.787 202.015 185.335 187.466 C 193.336 179.464,199.947 172.917,200.026 172.917 C 200.105 172.917,200.470 173.141,200.837 173.414 M162.110 212.536 C 162.388 212.682,164.074 214.022,165.856 215.512 C 175.261 223.374,185.364 229.725,196.767 234.942 C 199.118 236.017,201.082 236.926,201.132 236.961 C 201.202 237.011,197.039 257.891,195.791 263.748 L 195.549 264.881 192.985 264.726 C 176.944 263.751,160.369 258.430,146.528 249.810 C 141.556 246.713,133.102 240.395,133.102 239.776 C 133.102 239.430,159.152 213.280,160.069 212.705 C 160.871 212.203,161.398 212.160,162.110 212.536 M234.779 245.652 C 246.078 247.343,255.322 248.779,255.322 248.843 C 255.314 250.000,238.918 257.787,231.713 260.055 C 225.213 262.100,210.511 265.047,209.307 264.545 C 209.163 264.485,212.793 246.073,213.516 243.190 C 213.710 242.420,211.365 242.148,234.779 245.652 M261.131 246.181 C 261.124 246.435,261.219 246.800,261.343 246.991 C 261.640 247.451,261.640 246.873,261.343 246.181 L 261.144 245.718 261.131 246.181 M32.992 300.521 C 32.370 301.108,15.741 328.403,15.741 328.837 C 15.741 329.097,21.695 328.916,22.027 328.646 C 22.223 328.487,25.125 323.692,28.476 317.991 L 34.569 307.625 37.429 312.435 L 40.289 317.245 36.290 317.361 C 34.091 317.425,32.178 317.551,32.039 317.642 C 31.794 317.801,29.630 321.392,29.630 321.638 C 29.630 321.705,32.625 321.759,36.286 321.759 L 42.942 321.759 45.094 325.347 L 47.247 328.935 50.302 328.932 C 51.982 328.930,53.492 328.842,53.658 328.737 C 54.020 328.507,37.904 301.433,36.792 300.405 C 35.749 299.440,34.084 299.491,32.992 300.521 M77.199 300.665 C 63.636 304.575,63.661 325.067,77.232 328.568 C 78.681 328.942,97.337 329.143,98.245 328.795 C 98.569 328.670,98.611 327.719,98.611 320.461 L 98.611 312.269 89.718 312.269 C 79.087 312.269,80.093 312.024,80.093 314.608 L 80.093 316.667 86.574 316.667 L 93.056 316.667 93.056 320.154 L 93.056 323.642 86.169 323.569 L 79.282 323.495 77.828 322.824 C 72.382 320.309,70.972 312.618,75.133 308.123 C 77.399 305.676,77.372 305.681,87.384 305.612 C 98.168 305.537,96.991 305.884,96.991 302.773 L 96.991 300.231 87.789 300.248 C 79.789 300.262,78.407 300.317,77.199 300.665 M123.148 300.773 C 109.614 304.800,109.733 325.054,123.311 328.590 C 124.668 328.944,141.545 329.117,142.766 328.789 C 143.266 328.655,143.287 328.547,143.287 326.143 L 143.287 323.636 134.433 323.566 L 125.579 323.495 124.255 322.875 C 117.526 319.721,117.178 309.734,123.677 306.308 L 124.884 305.671 134.028 305.543 C 139.057 305.472,143.197 305.394,143.229 305.369 C 143.261 305.344,143.287 304.178,143.287 302.778 L 143.287 300.231 134.086 300.244 C 125.258 300.256,124.814 300.277,123.148 300.773 M158.623 300.385 C 158.396 300.476,158.333 303.561,158.333 314.718 L 158.333 328.935 160.745 328.935 C 162.071 328.935,163.321 328.872,163.523 328.795 C 163.851 328.669,163.889 327.188,163.889 314.443 L 163.889 300.231 161.400 300.250 C 160.032 300.260,158.782 300.321,158.623 300.385 M189.236 300.670 C 175.627 304.643,175.665 325.041,189.288 328.571 C 191.168 329.058,201.818 329.093,203.603 328.618 C 212.735 326.186,217.238 315.633,212.792 307.084 C 211.161 303.948,207.876 301.413,204.374 300.587 C 202.098 300.051,191.152 300.111,189.236 300.670 M227.951 300.391 C 227.597 300.484,227.546 300.812,227.546 303.026 L 227.546 305.556 232.986 305.556 L 238.426 305.556 238.426 317.245 L 238.426 328.935 240.799 328.932 C 242.104 328.930,243.406 328.866,243.692 328.789 L 244.213 328.650 244.213 317.103 L 244.213 305.556 249.132 305.552 C 255.668 305.548,255.093 305.818,255.093 302.751 L 255.093 300.231 241.725 300.258 C 234.372 300.273,228.174 300.333,227.951 300.391 M269.271 300.385 C 269.044 300.476,268.981 303.561,268.981 314.718 L 268.981 328.935 281.694 328.935 C 288.686 328.935,294.571 328.872,294.773 328.795 C 295.076 328.678,295.139 328.218,295.139 326.133 L 295.139 323.611 284.838 323.611 L 274.537 323.611 274.537 314.583 L 274.537 305.556 284.472 305.556 C 289.936 305.556,294.571 305.492,294.773 305.415 C 295.076 305.299,295.139 304.839,295.139 302.753 L 295.139 300.231 282.350 300.250 C 275.315 300.260,269.430 300.321,269.271 300.385 M319.514 300.675 C 305.968 304.550,306.036 325.056,319.607 328.590 C 320.963 328.944,338.126 329.124,338.986 328.795 C 339.288 328.679,339.352 328.220,339.352 326.145 L 339.352 323.636 330.498 323.566 L 321.644 323.495 320.320 322.875 C 313.056 319.470,313.459 308.114,320.923 305.898 C 321.845 305.624,323.723 305.556,330.347 305.556 C 340.374 305.556,339.352 305.874,339.352 302.753 L 339.352 300.231 330.150 300.248 C 322.067 300.262,320.775 300.314,319.514 300.675 M354.456 300.385 C 354.229 300.476,354.167 303.585,354.167 314.834 L 354.167 329.167 356.578 329.167 C 357.905 329.167,359.155 329.103,359.356 329.026 C 359.684 328.900,359.722 327.409,359.722 314.559 L 359.722 300.231 357.234 300.250 C 355.865 300.260,354.615 300.321,354.456 300.385 M377.373 300.385 C 377.152 300.474,377.083 301.872,377.083 306.269 L 377.083 312.037 370.274 312.037 C 361.976 312.037,362.731 311.791,362.731 314.492 L 362.731 316.667 369.907 316.667 L 377.083 316.667 377.083 322.917 L 377.083 329.167 379.495 329.167 C 380.821 329.167,382.071 329.103,382.273 329.026 C 382.601 328.900,382.639 327.409,382.639 314.559 L 382.639 300.231 380.150 300.250 C 378.782 300.260,377.532 300.321,377.373 300.385 M203.653 306.343 C 210.377 309.448,210.440 319.902,203.754 322.991 C 201.909 323.843,191.882 323.759,189.996 322.875 C 184.258 320.186,182.908 312.156,187.450 307.735 C 189.424 305.813,190.513 305.573,196.991 305.627 L 202.199 305.671 203.653 306.343 M277.836 312.422 C 277.635 312.503,277.546 313.168,277.546 314.603 L 277.546 316.667 285.398 316.667 C 294.849 316.667,293.981 316.903,293.981 314.327 L 293.981 312.269 286.053 312.287 C 281.693 312.297,277.995 312.358,277.836 312.422 " stroke="none" fill="#04a4f4" fill-rule="evenodd"></path><path id="path1" d="M24.215 337.866 C 24.137 338.068,24.074 340.672,24.074 343.653 L 24.074 349.074 25.347 349.074 L 26.620 349.074 26.629 345.313 L 26.638 341.551 30.431 345.428 C 34.077 349.156,34.258 349.306,35.142 349.306 C 36.369 349.306,36.343 349.440,36.343 343.152 L 36.343 337.731 35.069 337.731 L 33.796 337.731 33.796 341.491 L 33.796 345.250 29.916 341.375 C 25.864 337.328,24.697 336.609,24.215 337.866 M42.502 337.866 C 42.424 338.068,42.361 340.672,42.361 343.653 L 42.361 349.074 43.519 349.074 L 44.676 349.074 44.685 345.197 L 44.694 341.319 48.603 345.313 C 54.382 351.215,54.398 351.209,54.398 343.152 L 54.398 337.731 53.241 337.731 L 52.083 337.731 52.083 341.606 L 52.083 345.481 48.088 341.491 C 43.954 337.362,42.946 336.708,42.502 337.866 M103.164 343.141 C 99.204 349.747,99.438 349.075,101.100 349.070 L 102.431 349.067 104.861 344.923 L 107.291 340.779 108.393 342.670 L 109.495 344.560 107.754 344.676 C 106.087 344.787,105.992 344.824,105.556 345.544 L 105.099 346.296 107.816 346.299 L 110.532 346.301 111.390 347.688 L 112.249 349.074 113.662 349.074 L 115.076 349.074 114.584 348.206 C 110.593 341.158,108.201 337.614,107.389 337.546 L 106.560 337.477 103.164 343.141 M145.279 337.866 C 145.202 338.068,145.139 340.672,145.139 343.653 L 145.139 349.074 146.296 349.074 L 147.454 349.074 147.463 345.197 L 147.472 341.319 151.381 345.313 C 157.160 351.215,157.176 351.209,157.176 343.152 L 157.176 337.731 156.019 337.731 L 154.861 337.731 154.861 341.606 L 154.861 345.481 150.866 341.491 C 146.732 337.362,145.724 336.708,145.279 337.866 M333.025 343.141 C 329.065 349.747,329.299 349.075,330.961 349.070 L 332.292 349.067 334.722 344.923 L 337.152 340.779 338.254 342.670 L 339.357 344.560 337.615 344.676 C 335.948 344.787,335.853 344.824,335.417 345.544 L 334.961 346.296 337.677 346.299 L 340.394 346.301 341.252 347.688 L 342.110 349.074 343.523 349.074 L 344.937 349.074 344.445 348.206 C 340.454 341.158,338.062 337.614,337.250 337.546 L 336.421 337.477 333.025 343.141 M352.697 338.587 C 352.501 339.199,351.809 341.678,351.159 344.097 C 350.509 346.516,349.934 348.626,349.880 348.785 C 349.811 348.992,350.129 349.074,351.000 349.074 L 352.218 349.074 353.107 345.739 C 353.597 343.904,354.065 342.294,354.148 342.160 C 354.231 342.025,354.970 343.481,355.790 345.394 C 357.446 349.260,357.525 349.368,358.598 349.263 C 359.325 349.193,359.400 349.087,360.454 346.644 C 361.058 345.243,361.777 343.576,362.051 342.940 L 362.551 341.782 363.228 344.213 C 363.601 345.550,364.061 347.190,364.251 347.859 L 364.596 349.074 365.747 349.074 C 366.380 349.074,366.898 349.001,366.898 348.911 C 366.898 348.556,364.054 338.284,363.848 337.892 C 363.684 337.582,363.410 337.492,362.789 337.545 L 361.950 337.616 360.245 341.544 C 359.307 343.705,358.508 345.504,358.470 345.542 C 358.432 345.580,357.621 343.812,356.669 341.614 L 354.936 337.616 353.995 337.546 C 353.058 337.476,353.053 337.480,352.697 338.587 M15.741 343.403 L 15.741 349.074 16.898 349.074 L 18.056 349.074 18.056 343.403 L 18.056 337.731 16.898 337.731 L 15.741 337.731 15.741 343.403 M63.660 338.036 C 59.420 339.386,59.329 346.730,63.529 348.637 C 65.053 349.330,69.851 349.257,71.439 348.518 C 75.528 346.614,75.519 340.028,71.425 338.168 C 70.332 337.672,65.084 337.582,63.660 338.036 M79.630 337.866 C 79.630 337.940,81.155 340.544,83.018 343.653 C 87.575 351.253,86.958 351.255,91.481 343.634 C 93.068 340.961,94.492 338.539,94.645 338.252 C 94.919 337.740,94.902 337.731,93.562 337.731 L 92.201 337.731 89.761 341.911 L 87.322 346.090 86.863 345.325 C 86.611 344.904,85.502 343.024,84.399 341.146 L 82.394 337.731 81.012 337.731 C 80.252 337.731,79.630 337.792,79.630 337.866 M119.907 338.773 L 119.907 339.815 122.106 339.815 L 124.306 339.815 124.306 344.444 L 124.306 349.074 125.463 349.074 L 126.620 349.074 126.620 344.444 L 126.620 339.815 128.819 339.815 L 131.019 339.815 131.019 338.773 L 131.019 337.731 125.463 337.731 L 119.907 337.731 119.907 338.773 M136.574 343.403 L 136.574 349.074 137.731 349.074 L 138.889 349.074 138.889 343.403 L 138.889 337.731 137.731 337.731 L 136.574 337.731 136.574 343.403 M166.088 338.280 C 162.043 340.179,162.190 346.762,166.319 348.642 C 167.108 349.002,167.887 349.065,171.586 349.069 L 175.926 349.074 175.926 345.718 L 175.926 342.361 172.106 342.361 L 168.287 342.361 168.287 343.287 L 168.287 344.213 170.949 344.213 L 173.611 344.213 173.611 345.602 L 173.611 346.991 170.942 346.991 C 166.832 346.991,165.625 346.176,165.625 343.403 C 165.625 340.490,166.775 339.815,171.736 339.815 L 175.231 339.815 175.231 338.773 L 175.231 337.731 171.238 337.734 C 167.533 337.736,167.162 337.775,166.088 338.280 M190.278 337.831 C 190.278 337.886,191.632 339.508,193.287 341.435 L 196.296 344.940 196.296 347.007 L 196.296 349.074 197.454 349.074 L 198.611 349.074 198.618 346.933 L 198.625 344.792 200.722 342.361 C 201.875 341.024,203.236 339.436,203.746 338.831 L 204.673 337.731 203.154 337.731 L 201.635 337.731 199.602 340.147 C 198.484 341.476,197.517 342.563,197.454 342.563 C 197.390 342.562,196.453 341.480,195.370 340.158 L 193.403 337.754 191.840 337.743 C 190.981 337.737,190.278 337.776,190.278 337.831 M213.197 338.036 C 208.957 339.386,208.866 346.730,213.066 348.637 C 214.590 349.330,219.388 349.257,220.976 348.518 C 225.065 346.614,225.056 340.028,220.962 338.168 C 219.869 337.672,214.621 337.582,213.197 338.036 M229.635 341.725 C 229.643 348.078,230.642 349.306,235.806 349.306 C 241.351 349.306,242.361 348.087,242.361 341.393 L 242.361 337.731 241.204 337.731 L 240.046 337.731 240.033 341.146 C 240.013 346.501,239.602 347.106,235.995 347.106 C 232.388 347.106,231.978 346.501,231.958 341.146 L 231.944 337.731 230.787 337.731 L 229.630 337.731 229.635 341.725 M248.380 343.390 L 248.380 349.074 249.537 349.074 L 250.694 349.074 250.694 344.444 L 250.694 339.815 254.020 339.815 C 258.303 339.815,259.305 340.465,258.550 342.754 C 258.168 343.910,257.283 344.213,254.290 344.213 L 251.852 344.213 251.852 345.139 L 251.852 346.065 253.993 346.065 L 256.134 346.065 257.480 347.570 L 258.825 349.074 260.522 349.074 L 262.219 349.074 260.509 347.416 L 258.799 345.757 259.481 345.343 C 260.987 344.427,261.556 341.642,260.607 339.828 C 259.594 337.891,259.478 337.857,253.572 337.777 L 248.380 337.707 248.380 343.390 M276.620 343.403 L 276.620 349.074 280.587 349.074 C 285.249 349.074,286.074 348.889,287.431 347.534 C 289.662 345.306,289.622 341.234,287.348 339.075 C 286.095 337.886,285.341 337.731,280.794 337.731 L 276.620 337.731 276.620 343.403 M294.907 343.390 L 294.907 349.074 296.065 349.074 L 297.222 349.074 297.222 344.444 L 297.222 339.815 300.547 339.815 C 304.831 339.815,305.833 340.465,305.078 342.754 C 304.696 343.910,303.810 344.213,300.818 344.213 L 298.380 344.213 298.380 345.139 L 298.380 346.065 300.521 346.065 L 302.662 346.065 304.007 347.570 L 305.353 349.074 307.050 349.074 L 308.747 349.074 307.037 347.416 L 305.326 345.757 306.008 345.343 C 307.514 344.427,308.083 341.642,307.135 339.828 C 306.122 337.891,306.005 337.857,300.099 337.777 L 294.907 337.707 294.907 343.390 M313.889 343.403 L 313.889 349.074 319.213 349.074 L 324.537 349.074 324.537 348.032 L 324.537 346.991 320.370 346.991 L 316.204 346.991 316.204 343.403 L 316.204 339.815 320.370 339.815 L 324.537 339.815 324.537 338.773 L 324.537 337.731 319.213 337.731 L 313.889 337.731 313.889 343.403 M373.696 338.175 C 371.756 339.358,371.627 342.253,373.453 343.612 C 374.036 344.045,374.514 344.110,377.930 344.213 C 382.112 344.340,382.888 344.630,382.505 345.923 C 382.209 346.925,381.863 346.991,376.923 346.991 L 372.222 346.991 372.222 348.044 L 372.222 349.098 377.680 349.028 L 383.138 348.958 383.955 348.067 C 384.750 347.198,384.769 347.133,384.682 345.589 C 384.527 342.845,383.583 342.361,378.383 342.361 C 375.109 342.361,374.537 342.164,374.537 341.036 C 374.537 339.979,375.251 339.815,379.861 339.815 L 384.259 339.815 384.259 338.773 L 384.259 337.731 379.340 337.732 C 374.906 337.733,374.350 337.777,373.696 338.175 M70.093 340.140 C 72.759 341.527,72.759 345.278,70.093 346.666 C 69.264 347.096,65.754 347.099,64.726 346.670 C 62.193 345.611,62.112 341.489,64.600 340.220 C 65.613 339.704,69.155 339.652,70.093 340.140 M219.630 340.140 C 222.296 341.527,222.296 345.278,219.630 346.666 C 218.801 347.096,215.291 347.099,214.263 346.670 C 211.730 345.611,211.649 341.489,214.137 340.220 C 215.150 339.704,218.692 339.652,219.630 340.140 M284.676 340.140 C 287.342 341.527,287.342 345.278,284.676 346.666 C 284.249 346.887,283.239 346.991,281.493 346.991 L 278.935 346.991 278.935 343.403 L 278.935 339.815 281.493 339.815 C 283.239 339.815,284.249 339.918,284.676 340.140 M317.361 343.287 L 317.361 344.213 320.718 344.213 L 324.074 344.213 324.074 343.287 L 324.074 342.361 320.718 342.361 L 317.361 342.361 317.361 343.287 " stroke="none" fill="#fcfcfc" fill-rule="evenodd"></path><path id="path2" d="M122.158 71.085 C 108.329 72.941,103.323 90.796,114.143 99.672 C 121.726 105.892,133.823 103.639,138.488 95.139 C 144.957 83.352,135.421 69.305,122.158 71.085 M274.421 225.457 C 257.187 230.042,258.815 254.938,276.495 257.175 C 289.305 258.796,298.634 245.334,292.776 233.681 C 289.484 227.131,281.527 223.566,274.421 225.457 " stroke="none" fill="#444444" fill-rule="evenodd"></path><path id="path3" d="" stroke="none" fill="#40b8f8" fill-rule="evenodd"></path><path id="path4" d="" stroke="none" fill="#40b8fc" fill-rule="evenodd"></path></g></svg>